<mxfile host="app.diagrams.net" modified="2023-10-05T15:27:48.593Z" agent="Mozilla/5.0 (Windows NT 10.0; Win64; x64) AppleWebKit/537.36 (KHTML, like Gecko) Chrome/117.0.0.0 Safari/537.36" etag="KtLTvElMEIUx9VGW_nPC" version="22.0.2" type="device">
  <diagram name="Page-1" id="seMWRhTgBrU0-qEM4bhA">
    <mxGraphModel dx="2362" dy="1262" grid="0" gridSize="10" guides="1" tooltips="1" connect="1" arrows="1" fold="1" page="0" pageScale="1" pageWidth="850" pageHeight="1100" math="0" shadow="0">
      <root>
        <mxCell id="0" />
        <mxCell id="1" parent="0" />
        <mxCell id="kVuDkGV54a9ejEhahhyr-9" style="edgeStyle=orthogonalEdgeStyle;rounded=0;orthogonalLoop=1;jettySize=auto;html=1;entryX=0;entryY=0.5;entryDx=0;entryDy=0;" edge="1" parent="1" source="kVuDkGV54a9ejEhahhyr-1" target="kVuDkGV54a9ejEhahhyr-7">
          <mxGeometry relative="1" as="geometry" />
        </mxCell>
        <mxCell id="kVuDkGV54a9ejEhahhyr-16" style="edgeStyle=orthogonalEdgeStyle;rounded=0;orthogonalLoop=1;jettySize=auto;html=1;" edge="1" parent="1" source="kVuDkGV54a9ejEhahhyr-1" target="kVuDkGV54a9ejEhahhyr-15">
          <mxGeometry relative="1" as="geometry" />
        </mxCell>
        <mxCell id="kVuDkGV54a9ejEhahhyr-17" style="edgeStyle=orthogonalEdgeStyle;rounded=0;orthogonalLoop=1;jettySize=auto;html=1;" edge="1" parent="1" source="kVuDkGV54a9ejEhahhyr-1" target="kVuDkGV54a9ejEhahhyr-14">
          <mxGeometry relative="1" as="geometry" />
        </mxCell>
        <mxCell id="kVuDkGV54a9ejEhahhyr-1" value="" style="rounded=1;whiteSpace=wrap;html=1;fillColor=#d5e8d4;strokeColor=#82b366;" vertex="1" parent="1">
          <mxGeometry x="-191" y="124" width="299" height="588" as="geometry" />
        </mxCell>
        <mxCell id="kVuDkGV54a9ejEhahhyr-2" value="" style="ellipse;whiteSpace=wrap;html=1;aspect=fixed;" vertex="1" parent="1">
          <mxGeometry x="-68" y="142" width="45" height="45" as="geometry" />
        </mxCell>
        <mxCell id="kVuDkGV54a9ejEhahhyr-3" value="Actor" style="shape=umlActor;verticalLabelPosition=bottom;verticalAlign=top;html=1;outlineConnect=0;fillColor=#e1d5e7;strokeColor=#9673a6;" vertex="1" parent="1">
          <mxGeometry x="-443" y="399" width="232" height="351" as="geometry" />
        </mxCell>
        <mxCell id="kVuDkGV54a9ejEhahhyr-4" value="" style="shape=flexArrow;endArrow=classic;startArrow=classic;html=1;rounded=0;entryX=0.329;entryY=0.924;entryDx=0;entryDy=0;entryPerimeter=0;fillColor=#dae8fc;strokeColor=#6c8ebf;" edge="1" parent="1" target="kVuDkGV54a9ejEhahhyr-2">
          <mxGeometry width="100" height="100" relative="1" as="geometry">
            <mxPoint x="-269" y="409" as="sourcePoint" />
            <mxPoint x="-169" y="309" as="targetPoint" />
          </mxGeometry>
        </mxCell>
        <mxCell id="kVuDkGV54a9ejEhahhyr-5" value="" style="rhombus;whiteSpace=wrap;html=1;" vertex="1" parent="1">
          <mxGeometry x="-327" y="414" width="38" height="26" as="geometry" />
        </mxCell>
        <mxCell id="kVuDkGV54a9ejEhahhyr-18" style="edgeStyle=orthogonalEdgeStyle;rounded=0;orthogonalLoop=1;jettySize=auto;html=1;entryX=0;entryY=0.5;entryDx=0;entryDy=0;" edge="1" parent="1" source="kVuDkGV54a9ejEhahhyr-7" target="kVuDkGV54a9ejEhahhyr-13">
          <mxGeometry relative="1" as="geometry" />
        </mxCell>
        <mxCell id="kVuDkGV54a9ejEhahhyr-19" style="edgeStyle=orthogonalEdgeStyle;rounded=0;orthogonalLoop=1;jettySize=auto;html=1;entryX=0;entryY=0.25;entryDx=0;entryDy=0;" edge="1" parent="1" source="kVuDkGV54a9ejEhahhyr-7" target="kVuDkGV54a9ejEhahhyr-15">
          <mxGeometry relative="1" as="geometry" />
        </mxCell>
        <mxCell id="kVuDkGV54a9ejEhahhyr-20" style="edgeStyle=orthogonalEdgeStyle;rounded=0;orthogonalLoop=1;jettySize=auto;html=1;entryX=0;entryY=0.5;entryDx=0;entryDy=0;" edge="1" parent="1" source="kVuDkGV54a9ejEhahhyr-7" target="kVuDkGV54a9ejEhahhyr-14">
          <mxGeometry relative="1" as="geometry" />
        </mxCell>
        <mxCell id="kVuDkGV54a9ejEhahhyr-7" value="" style="rounded=0;whiteSpace=wrap;html=1;fillColor=#f8cecc;strokeColor=#b85450;" vertex="1" parent="1">
          <mxGeometry x="266" y="114" width="432" height="162" as="geometry" />
        </mxCell>
        <mxCell id="kVuDkGV54a9ejEhahhyr-6" value="ЯДРО" style="triangle;whiteSpace=wrap;html=1;fillColor=#fff2cc;strokeColor=#d6b656;" vertex="1" parent="1">
          <mxGeometry x="452" y="138" width="60" height="80" as="geometry" />
        </mxCell>
        <mxCell id="kVuDkGV54a9ejEhahhyr-8" value="x11000" style="text;html=1;strokeColor=none;fillColor=none;align=center;verticalAlign=middle;whiteSpace=wrap;rounded=0;" vertex="1" parent="1">
          <mxGeometry x="-144" y="84" width="60" height="30" as="geometry" />
        </mxCell>
        <mxCell id="kVuDkGV54a9ejEhahhyr-11" value="backend" style="text;html=1;strokeColor=none;fillColor=none;align=center;verticalAlign=middle;whiteSpace=wrap;rounded=0;" vertex="1" parent="1">
          <mxGeometry x="452" y="67" width="60" height="30" as="geometry" />
        </mxCell>
        <mxCell id="kVuDkGV54a9ejEhahhyr-12" value="IoT" style="text;html=1;strokeColor=none;fillColor=none;align=center;verticalAlign=middle;whiteSpace=wrap;rounded=0;" vertex="1" parent="1">
          <mxGeometry x="-71.5" y="84" width="60" height="30" as="geometry" />
        </mxCell>
        <mxCell id="kVuDkGV54a9ejEhahhyr-13" value="api 1" style="shape=dataStorage;whiteSpace=wrap;html=1;fixedSize=1;fillColor=#d5e8d4;strokeColor=#82b366;" vertex="1" parent="1">
          <mxGeometry x="859" y="114" width="82" height="40" as="geometry" />
        </mxCell>
        <mxCell id="kVuDkGV54a9ejEhahhyr-14" value="api 2" style="shape=dataStorage;whiteSpace=wrap;html=1;fixedSize=1;fillColor=#e1d5e7;strokeColor=#9673a6;" vertex="1" parent="1">
          <mxGeometry x="866" y="359" width="82" height="40" as="geometry" />
        </mxCell>
        <mxCell id="kVuDkGV54a9ejEhahhyr-15" value="api 3" style="shape=dataStorage;whiteSpace=wrap;html=1;fixedSize=1;fillColor=#ffe6cc;strokeColor=#d79b00;" vertex="1" parent="1">
          <mxGeometry x="866" y="289" width="82" height="40" as="geometry" />
        </mxCell>
        <mxCell id="kVuDkGV54a9ejEhahhyr-21" value="" style="endArrow=none;html=1;rounded=0;fillColor=#f8cecc;strokeColor=#b85450;" edge="1" parent="1">
          <mxGeometry width="50" height="50" relative="1" as="geometry">
            <mxPoint x="300" y="466" as="sourcePoint" />
            <mxPoint x="458" y="348" as="targetPoint" />
          </mxGeometry>
        </mxCell>
        <mxCell id="kVuDkGV54a9ejEhahhyr-22" value="" style="endArrow=none;html=1;rounded=0;fillColor=#f8cecc;strokeColor=#b85450;" edge="1" parent="1">
          <mxGeometry width="50" height="50" relative="1" as="geometry">
            <mxPoint x="455" y="467" as="sourcePoint" />
            <mxPoint x="316" y="348" as="targetPoint" />
          </mxGeometry>
        </mxCell>
        <mxCell id="kVuDkGV54a9ejEhahhyr-23" value="JSON" style="text;html=1;strokeColor=none;fillColor=none;align=center;verticalAlign=middle;whiteSpace=wrap;rounded=0;" vertex="1" parent="1">
          <mxGeometry x="153" y="79" width="60" height="30" as="geometry" />
        </mxCell>
        <mxCell id="kVuDkGV54a9ejEhahhyr-24" value="" style="shape=flexArrow;endArrow=classic;html=1;rounded=0;" edge="1" parent="1">
          <mxGeometry width="50" height="50" relative="1" as="geometry">
            <mxPoint x="-213" y="1070" as="sourcePoint" />
            <mxPoint x="107" y="1069" as="targetPoint" />
          </mxGeometry>
        </mxCell>
        <mxCell id="kVuDkGV54a9ejEhahhyr-25" value="" style="shape=flexArrow;endArrow=classic;html=1;rounded=0;" edge="1" parent="1">
          <mxGeometry width="50" height="50" relative="1" as="geometry">
            <mxPoint x="102" y="1137" as="sourcePoint" />
            <mxPoint x="-223" y="1137" as="targetPoint" />
          </mxGeometry>
        </mxCell>
        <mxCell id="kVuDkGV54a9ejEhahhyr-26" value="" style="shape=cylinder3;whiteSpace=wrap;html=1;boundedLbl=1;backgroundOutline=1;size=15;" vertex="1" parent="1">
          <mxGeometry x="325" y="1076" width="151" height="165" as="geometry" />
        </mxCell>
        <mxCell id="kVuDkGV54a9ejEhahhyr-27" value="" style="shape=step;perimeter=stepPerimeter;whiteSpace=wrap;html=1;fixedSize=1;" vertex="1" parent="1">
          <mxGeometry x="151" y="1060" width="120" height="80" as="geometry" />
        </mxCell>
        <mxCell id="kVuDkGV54a9ejEhahhyr-28" value="1. Новости&lt;br&gt;2. Погода" style="text;html=1;strokeColor=none;fillColor=none;align=center;verticalAlign=middle;whiteSpace=wrap;rounded=0;" vertex="1" parent="1">
          <mxGeometry x="59" y="-39" width="142" height="44" as="geometry" />
        </mxCell>
      </root>
    </mxGraphModel>
  </diagram>
</mxfile>
